<svg xmlns="http://www.w3.org/2000/svg" width="24" height="24" fill="none" viewBox="0 0 24 24"><path fill="#FCFCFC" fill-rule="evenodd" d="M24 12c0 6.627-5.373 12-12 12S0 18.627 0 12 5.373 0 12 0s12 5.373 12 12Zm-11.412 2.975h-.717s-1.582.083-2.976-1.188c-1.52-1.388-2.863-4.14-2.863-4.14s-.077-.18.007-.268c.095-.098.352-.104.352-.104l1.715-.01s.161.024.277.098c.095.062.149.176.149.176s.277.615.644 1.17c.716 1.085 1.05 1.322 1.293 1.206.354-.17.248-1.533.248-1.533s.007-.496-.178-.716c-.143-.17-.414-.22-.533-.235-.096-.011.062-.207.267-.295.309-.133.854-.14 1.498-.135.501.005.645.032.842.074.455.096.44.405.41 1.07-.01.2-.02.43-.02.697 0 .06-.002.124-.004.19-.01.34-.023.73.233.876.132.074.453.011 1.256-1.185.381-.566.667-1.233.667-1.233s.062-.119.16-.17c.098-.051.232-.036.232-.036l1.805-.01s.542-.056.63.158c.091.226-.203.751-.94 1.612-.696.813-1.036 1.115-1.01 1.38.02.196.242.372.67.72.888.722 1.124 1.101 1.18 1.192a.447.447 0 0 0 .011.016c.398.578-.44.623-.44.623l-1.603.02s-.345.06-.798-.214c-.237-.142-.469-.375-.69-.597-.337-.339-.649-.652-.915-.578-.447.124-.433.967-.433.967s.004.18-.098.277c-.11.104-.328.125-.328.125Z" clip-rule="evenodd"/></svg>